<svg xmlns="http://www.w3.org/2000/svg" viewBox="0 0 1000 600" width="1000" height="600" role="img" aria-label="Inverse kinematics geometry">
  <defs>
    <radialGradient id="bg3" cx="35%" cy="40%" r="85%">
      <stop offset="0%" stop-color="#16110c"/>
      <stop offset="100%" stop-color="#0a0706"/>
    </radialGradient>
    <filter id="g3" x="-80%" y="-80%" width="260%" height="260%">
      <feGaussianBlur stdDeviation="3" result="b"/>
      <feMerge><feMergeNode in="b"/><feMergeNode in="SourceGraphic"/></feMerge>
    </filter>
    <style>
      @keyframes lock { 0%,100%{ transform:scale(1); opacity:.9 } 50%{ transform:scale(1.35); opacity:.4 } }
      @keyframes spin { to { transform: rotate(360deg); } }
      @keyframes mflow { to { stroke-dashoffset:-24; } }
      .lk { stroke:#e0392f; stroke-width:11; stroke-linecap:round; }
      .lk2 { stroke:#d2913f; stroke-width:11; stroke-linecap:round; }
      .joint { fill:#120d0a; stroke:#e0392f; stroke-width:3; }
      .cons { stroke:#c2a878; stroke-width:1.4; stroke-dasharray:5 5; opacity:.7; }
      .cap { font-family:'Arial',sans-serif; fill:#efe7d8; }
      .mono { font-family:'Courier New',monospace; fill:#d8c9a8; }
      .ang { font-family:'Arial',sans-serif; font-style:italic; fill:#e0392f; font-weight:700; }
      .reticle { transform-origin:476px 262px; animation:lock 2.2s infinite ease-in-out; }
      .reach { stroke:#8a4f3a; stroke-width:1.6; stroke-dasharray:4 10; animation:mflow 2s infinite linear; }
    </style>
  </defs>

  <rect width="1000" height="600" fill="url(#bg3)"/>
  <text x="60" y="56" class="cap" font-size="24" font-weight="800" letter-spacing="2">INVERSE KINEMATICS</text>
  <text x="60" y="82" class="mono" font-size="13" opacity="0.85">2-link planar solver &#183; law of cosines &#183; runs on-device in real time</text>

  <!-- reach boundary (max stretch L1+L2) -->
  <path class="reach" d="M 250 120 A 300 300 0 0 1 545 470" fill="none"/>
  <text x="300" y="135" class="mono" font-size="11" opacity="0.7">reach limit&#160;&#160;D &#8804; L&#8321;+L&#8322;</text>

  <!-- ground + vertical axes -->
  <line x1="120" y1="420" x2="600" y2="420" stroke="#4d3b30" stroke-width="2"/>
  <line x1="250" y1="470" x2="250" y2="120" stroke="#4d3b30" stroke-width="2"/>
  <text x="600" y="440" text-anchor="end" class="mono" font-size="12">r-axis</text>
  <text x="258" y="132" class="mono" font-size="12">z</text>

  <!-- construction lines: r and z to target -->
  <line class="cons" x1="250" y1="420" x2="476" y2="420"/>
  <line class="cons" x1="476" y1="420" x2="476" y2="262"/>
  <line class="cons" x1="250" y1="420" x2="476" y2="262"/>
  <text x="360" y="438" class="mono" font-size="12.5" fill="#d8c9a8">r</text>
  <text x="484" y="345" class="mono" font-size="12.5" fill="#d8c9a8">z</text>
  <text x="350" y="330" class="mono" font-size="12.5" fill="#c2a878" transform="rotate(-35 350 330)">D = &#8730;(r&#178;+z&#178;)</text>

  <!-- the arm -->
  <line class="lk" x1="250" y1="420" x2="330" y2="293"/>
  <line class="lk2" x1="330" y1="293" x2="476" y2="262"/>
  <circle class="joint" cx="250" cy="420" r="9"/>
  <circle class="joint" cx="330" cy="293" r="8"/>

  <!-- link labels -->
  <text x="262" y="356" class="cap" font-size="13" fill="#efe7d8" transform="rotate(-58 262 356)">L&#8321; = 12.5 cm</text>
  <text x="392" y="268" class="cap" font-size="13" fill="#efe7d8" transform="rotate(-12 392 268)">L&#8322; = 12.5 cm</text>

  <!-- angle arcs -->
  <path d="M 296 420 A 46 46 0 0 0 274 381" fill="none" stroke="#e0392f" stroke-width="2.4"/>
  <text x="300" y="404" class="ang" font-size="16">&#952;&#8320;</text>
  <text x="286" y="392" class="ang" font-size="11" fill="#d8c9a8">shoulder</text>

  <path d="M 310 325 A 38 38 0 0 1 367 285" fill="none" stroke="#d2913f" stroke-width="2.4"/>
  <text x="338" y="300" class="ang" font-size="16">&#952;&#8321;</text>
  <text x="332" y="316" class="ang" font-size="11" fill="#d8c9a8">elbow</text>

  <!-- target reticle -->
  <g class="reticle">
    <circle cx="476" cy="262" r="13" fill="none" stroke="#e0392f" stroke-width="2"/>
  </g>
  <circle cx="476" cy="262" r="5" fill="#f3ece0" filter="url(#g3)"/>
  <text x="492" y="250" class="cap" font-size="13" fill="#efe7d8">target (x, y, z)</text>

  <!-- base-rotation inset (top view) -->
  <g transform="translate(155,520)">
    <circle r="38" fill="#120d0a" stroke="#4d3b30" stroke-width="1.5"/>
    <line x1="-38" y1="0" x2="38" y2="0" stroke="#4d3b30"/>
    <line x1="0" y1="-38" x2="0" y2="38" stroke="#4d3b30"/>
    <g style="transform-origin:center; animation:spin 14s infinite linear">
      <line x1="0" y1="0" x2="30" y2="-18" stroke="#e0392f" stroke-width="2.6"/>
      <circle cx="30" cy="-18" r="3.5" fill="#e0392f"/>
    </g>
    <circle r="4" fill="#e0392f"/>
    <text x="0" y="58" text-anchor="middle" class="ang" font-size="13">&#952;_base = atan2(y, x)</text>
    <text x="0" y="-46" text-anchor="middle" class="mono" font-size="10.5" opacity="0.8">base yaw (top view)</text>
  </g>

  <!-- formula panel -->
  <g transform="translate(640,120)">
    <rect x="0" y="0" width="320" height="360" rx="14" fill="#120d0a" stroke="#4d3b30" stroke-width="1.5"/>
    <text x="20" y="34" class="cap" font-size="15" font-weight="800" fill="#e0392f">SOLVER &#8212; per target</text>
    <line x1="20" y1="46" x2="300" y2="46" stroke="#4d3b30"/>

    <text x="20" y="78" class="mono" font-size="13.5">r&#160;&#160;= &#8730;(x&#178; + y&#178;)</text>
    <text x="20" y="106" class="mono" font-size="13.5">D&#160;&#160;= &#8730;(r&#178; + z&#178;)</text>

    <text x="20" y="146" class="mono" font-size="12">&#952;_base&#160;= atan2(y, x)</text>

    <text x="20" y="184" class="mono" font-size="11.5">&#952;_shldr = acos(</text>
    <text x="36" y="204" class="mono" font-size="11.5">(L&#8321;&#178;+D&#178;&#8722;L&#8322;&#178;) / (2&#183;L&#8321;&#183;D) )</text>
    <text x="36" y="222" class="mono" font-size="11.5">&#160;&#160;+ atan2(z, r)</text>

    <text x="20" y="258" class="mono" font-size="11.5">&#952;_elbow = 180&#176; &#8722; acos(</text>
    <text x="36" y="278" class="mono" font-size="11.5">(L&#8321;&#178;+L&#8322;&#178;&#8722;D&#178;) / (2&#183;L&#8321;&#183;L&#8322;) )</text>

    <line x1="20" y1="298" x2="300" y2="298" stroke="#4d3b30"/>
    <text x="20" y="322" class="mono" font-size="11" fill="#c2a878">if D &gt; L&#8321;+L&#8322; &#8594; target out of reach</text>
    <text x="20" y="344" class="mono" font-size="11" fill="#c2a878">angles &#8594; PWM &#8594; smoothMove()</text>
  </g>
</svg>
